<svg id="LOGO" xmlns="http://www.w3.org/2000/svg" width="273.88" height="53.19" viewBox="0 0 273.88 53.19">
  <metadata><?xpacket begin="﻿" id="W5M0MpCehiHzreSzNTczkc9d"?>
<x:xmpmeta xmlns:x="adobe:ns:meta/" x:xmptk="Adobe XMP Core 5.6-c140 79.160451, 2017/05/06-01:08:21        ">
   <rdf:RDF xmlns:rdf="http://www.w3.org/1999/02/22-rdf-syntax-ns#">
      <rdf:Description rdf:about=""/>
   </rdf:RDF>
</x:xmpmeta>
                                                                                                    
                                                                                                    
                                                                                                    
                                                                                                    
                                                                                                    
                                                                                                    
                                                                                                    
                                                                                                    
                                                                                                    
                                                                                                    
                                                                                                    
                                                                                                    
                                                                                                    
                                                                                                    
                                                                                                    
                                                                                                    
                                                                                                    
                                                                                                    
                                                                                                    
                                                                                                    
                           
<?xpacket end="w"?></metadata>
<defs>
    <style>
      .cls-1 {
        font-size: 32px;
        font-family: SegoeScript;
      }

      .cls-1, .cls-3 {
        fill: #fb7d7e;
      }

      .cls-2 {
        fill: #fac81b;
        font-family: Lato;
        font-weight: 700;
      }

      .cls-3 {
        fill-rule: evenodd;
      }
    </style>
  </defs>
  <text id="KreativePixel" class="cls-1" x="59.879" y="37.001">Kreative<tspan class="cls-2">Pixel</tspan></text>
  <g id="Symbol">
    <path class="cls-3" d="M1287.5,1095.5l-3.38,15.37s-0.74,4.5,3.63.88,10.62-8.88,10.62-8.88,3.75-2.75,3.63,4.63-0.13,26.12-.13,26.12-1.25,3.63-4.5,1.38c-3.12-2.75-13.25-11.63-13.25-11.63s-4.25-2-5.12,2c0,0.38-.5,7.13-0.5,7.13s0.25,2.5-2,1.75a26.483,26.483,0,0,1-5.38-3s-2.37.12,0-3,6.88-5.5,6.88-5.5,2.62-3.5,8.12-1.13,6.63,3,6.63,3,4.25,1.25,4.25-2.25v-7.75s-0.75-4.37-4-3-10.63,7.13-11.13,1.75c-0.25-.12,3.88-17.75,3.88-17.75Z" transform="translate(-1254.12 -1093)"/>
    <path id="Shape_3_copy" data-name="Shape 3 copy" class="cls-3" d="M1254.76,1124.91l14.94-4.96s4.25-1.65-1.1-3.56-13.06-4.6-13.06-4.6-4.28-1.82,2.12-5.48,22.52-13.24,22.52-13.24,3.76-.78,3.48,3.17l-3.22,17.33s0.45,4.67,4.34,3.38c0.32-.19,6.38-3.21,6.38-3.21s2.02-1.49,2.52.82a26.2,26.2,0,0,1,.17,6.16s1.32,1.98-2.58,1.53-8.24-3.1-8.24-3.1-4.35-.47-5.12-6.41-0.8-7.23-.8-7.23-1.1-4.29-4.11-2.5l-6.66,3.96s-3.38,2.88-.53,4.97,11.55,5.49,7.18,8.67c0.02,0.28-17.23,5.74-17.23,5.74Z" transform="translate(-1254.12 -1093)"/>
    <path id="Shape_3_copy_2" data-name="Shape 3 copy 2" class="cls-3" d="M1295.52,1138.42l-11.41-10.84s-3.46-2.97-2.62,2.65,2.09,13.68,2.09,13.68,0.42,4.64-5.83.71-22.29-13.62-22.29-13.62-2.46-2.94,1.15-4.56c3.97-1.25,16.8-5.33,16.8-5.33s3.91-2.6.94-5.42c-0.32-.19-5.84-4.11-5.84-4.11s-2.26-1.08-.46-2.62a26.419,26.419,0,0,1,5.35-3.05s1.12-2.09,2.57,1.56,1.15,8.72,1.15,8.72,1.63,4.06-3.24,7.54-6,4.12-6,4.12-3.27,2.99-.27,4.8,6.63,4.01,6.63,4.01,4.13,1.62,4.64-1.87-0.6-12.78,4.25-10.43c0.24-.15,13.19,12.5,13.19,12.5Z" transform="translate(-1254.12 -1093)"/>
  </g>
</svg>
