<svg id="Send_Message_Icon" data-name="Send Message Icon" xmlns="http://www.w3.org/2000/svg" width="70.938" height="40.69" viewBox="0 0 70.938 40.69">
  <metadata><?xpacket begin="﻿" id="W5M0MpCehiHzreSzNTczkc9d"?>
<x:xmpmeta xmlns:x="adobe:ns:meta/" x:xmptk="Adobe XMP Core 5.6-c140 79.160451, 2017/05/06-01:08:21        ">
   <rdf:RDF xmlns:rdf="http://www.w3.org/1999/02/22-rdf-syntax-ns#">
      <rdf:Description rdf:about=""/>
   </rdf:RDF>
</x:xmpmeta>
                                                                                                    
                                                                                                    
                                                                                                    
                                                                                                    
                                                                                                    
                                                                                                    
                                                                                                    
                                                                                                    
                                                                                                    
                                                                                                    
                                                                                                    
                                                                                                    
                                                                                                    
                                                                                                    
                                                                                                    
                                                                                                    
                                                                                                    
                                                                                                    
                                                                                                    
                                                                                                    
                           
<?xpacket end="w"?></metadata>
<defs>
    <style>
      .cls-1, .cls-2 {
        fill: #fff;
        fill-rule: evenodd;
      }

      .cls-2 {
        stroke: #e66768;
        stroke-linejoin: round;
        stroke-width: 3px;
      }
    </style>
  </defs>
  <path id="MAIL" class="cls-1" d="M810.6,3419.13l16.1-15.59a2.465,2.465,0,0,1,.738,1.76v31.4a2.457,2.457,0,0,1-.668,1.68Zm-35.218-15.66a2.446,2.446,0,0,1,1.653-.65h47.924a2.45,2.45,0,0,1,1.654.65L801,3423.48Zm-0.157,34.91a2.457,2.457,0,0,1-.668-1.68v-31.4a2.465,2.465,0,0,1,.738-1.76l16.1,15.59ZM801,3428.44l6.722-6.52,18.939,16.58a2.463,2.463,0,0,1-1.7.68H777.038a2.463,2.463,0,0,1-1.7-.68l18.939-16.58Z" transform="translate(-774.562 -3402.81)"/>
  <path id="shuffle_copy" data-name="shuffle copy" class="cls-2" d="M832.967,3434.32a2.727,2.727,0,0,1-2.359,1.42,2.762,2.762,0,0,1-2.759-2.76v-1.61s-17.316-1.79-21.734,7.93c7.658-16.85,21.734-15.52,21.734-15.52v-1.84a2.729,2.729,0,0,1,5.112-1.35l8.335,6.25a0.734,0.734,0,0,1,0,1.24Z" transform="translate(-774.562 -3402.81)"/>
</svg>
